<svg width="24" height="24" viewBox="0 0 24 24" fill="none" xmlns="http://www.w3.org/2000/svg">
<path d="M19 18V8C19 6.34315 17.6569 5 16 5H15M5 18V8C5 6.34315 6.34315 5 8 5H9M9 5L9.5 6.5H14.5L15 5M9 5H15" stroke="black" stroke-width="1.8" stroke-linejoin="round"/>
<path d="M12 19C5.92487 19 1 17.2091 1 15C1 13.8053 2.44033 12.7329 4.72398 12M12 19L9 16M12 19L9 21.5M16 18.7273C20.0974 18.1454 23 16.696 23 15C23 13.8053 21.5597 12.7329 19.276 12" stroke="black" stroke-width="1.8" stroke-linecap="round" stroke-linejoin="round"/>
</svg>
