<svg width="25" height="25" viewBox="0 0 25 25" fill="none" xmlns="http://www.w3.org/2000/svg">
<path fill-rule="evenodd" clip-rule="evenodd" d="M6.10105 5C6.46854 2.26899 9.19775 0 12.3091 0C15.4204 0 18.1496 2.26899 18.5171 5H22.1178C23.4985 5 24.6178 6.11929 24.6178 7.5C24.6178 7.6183 24.6094 7.73644 24.5927 7.85355L22.4498 22.8536C22.2739 24.0852 21.2191 25 19.9749 25H4.64318C3.39905 25 2.34425 24.0852 2.1683 22.8536L0.0254447 7.85355C-0.169817 6.48672 0.77993 5.22039 2.14676 5.02513C2.26387 5.0084 2.38202 5 2.50032 5H6.10105ZM15.9689 5C15.589 3.6726 14.0566 2.5 12.3091 2.5C10.5616 2.5 9.02923 3.6726 8.64924 5H15.9689ZM2.50031 7.5H6.05904V10H8.55904V7.5H16.059V10H18.559V7.5H22.1178L19.9749 22.5H4.64316L2.50031 7.5Z" fill="black"/>
</svg>
